<svg width="155" height="50" viewBox="0 0 155 50" fill="none" xmlns="http://www.w3.org/2000/svg">
<path d="M18.6 36.35C15.3667 36.35 12.3833 35.6 9.65 34.1C6.95 32.5667 4.8 30.45 3.2 27.75C1.63333 25.0167 0.85 21.95 0.85 18.55C0.85 15.15 1.63333 12.1 3.2 9.4C4.8 6.7 6.95 4.6 9.65 3.1C12.3833 1.56666 15.3667 0.799997 18.6 0.799997C21.8667 0.799997 24.85 1.56666 27.55 3.1C30.2833 4.6 32.4333 6.7 34 9.4C35.5667 12.1 36.35 15.15 36.35 18.55C36.35 21.95 35.5667 25.0167 34 27.75C32.4333 30.45 30.2833 32.5667 27.55 34.1C24.85 35.6 21.8667 36.35 18.6 36.35ZM18.6 31.4C20.9 31.4 22.95 30.8833 24.75 29.85C26.55 28.7833 27.95 27.2833 28.95 25.35C29.9833 23.3833 30.5 21.1167 30.5 18.55C30.5 15.9833 29.9833 13.7333 28.95 11.8C27.95 9.86666 26.55 8.38333 24.75 7.35C22.95 6.31667 20.9 5.8 18.6 5.8C16.3 5.8 14.25 6.31667 12.45 7.35C10.65 8.38333 9.23333 9.86666 8.2 11.8C7.2 13.7333 6.7 15.9833 6.7 18.55C6.7 21.1167 7.2 23.3833 8.2 25.35C9.23333 27.2833 10.65 28.7833 12.45 29.85C14.25 30.8833 16.3 31.4 18.6 31.4ZM42.659 12.5C43.6257 11.2333 44.9423 10.1667 46.609 9.3C48.2757 8.43333 50.159 8 52.259 8C54.659 8 56.8423 8.6 58.809 9.8C60.809 10.9667 62.3757 12.6167 63.509 14.75C64.6423 16.8833 65.209 19.3333 65.209 22.1C65.209 24.8667 64.6423 27.35 63.509 29.55C62.3757 31.7167 60.809 33.4167 58.809 34.65C56.8423 35.85 54.659 36.45 52.259 36.45C50.159 36.45 48.2923 36.0333 46.659 35.2C45.0257 34.3333 43.6923 33.2667 42.659 32V49.1H36.959V8.45H42.659V12.5ZM59.409 22.1C59.409 20.2 59.009 18.5667 58.209 17.2C57.4423 15.8 56.409 14.75 55.109 14.05C53.8423 13.3167 52.4757 12.95 51.009 12.95C49.5757 12.95 48.209 13.3167 46.909 14.05C45.6423 14.7833 44.609 15.85 43.809 17.25C43.0423 18.65 42.659 20.3 42.659 22.2C42.659 24.1 43.0423 25.7667 43.809 27.2C44.609 28.6 45.6423 29.6667 46.909 30.4C48.209 31.1333 49.5757 31.5 51.009 31.5C52.4757 31.5 53.8423 31.1333 55.109 30.4C56.409 29.6333 57.4423 28.5333 58.209 27.1C59.009 25.6667 59.409 24 59.409 22.1ZM91.0957 21.55C91.0957 22.5833 91.029 23.5167 90.8957 24.35H69.8457C70.0124 26.55 70.829 28.3167 72.2957 29.65C73.7624 30.9833 75.5624 31.65 77.6957 31.65C80.7624 31.65 82.929 30.3667 84.1957 27.8H90.3457C89.5124 30.3333 87.9957 32.4167 85.7957 34.05C83.629 35.65 80.929 36.45 77.6957 36.45C75.0624 36.45 72.6957 35.8667 70.5957 34.7C68.529 33.5 66.8957 31.8333 65.6957 29.7C64.529 27.5333 63.9457 25.0333 63.9457 22.2C63.9457 19.3667 64.5124 16.8833 65.6457 14.75C66.8124 12.5833 68.429 10.9167 70.4957 9.75C72.5957 8.58333 74.9957 8 77.6957 8C80.2957 8 82.6124 8.56667 84.6457 9.7C86.679 10.8333 88.2624 12.4333 89.3957 14.5C90.529 16.5333 91.0957 18.8833 91.0957 21.55ZM85.1457 19.75C85.1124 17.65 84.3624 15.9667 82.8957 14.7C81.429 13.4333 79.6124 12.8 77.4457 12.8C75.479 12.8 73.7957 13.4333 72.3957 14.7C70.9957 15.9333 70.1624 17.6167 69.8957 19.75H85.1457ZM105.605 8C107.772 8 109.705 8.45 111.405 9.35C113.138 10.25 114.488 11.5833 115.455 13.35C116.422 15.1167 116.905 17.25 116.905 19.75V36H111.255V20.6C111.255 18.1333 110.638 16.25 109.405 14.95C108.172 13.6167 106.488 12.95 104.355 12.95C102.222 12.95 100.522 13.6167 99.2551 14.95C98.0217 16.25 97.4051 18.1333 97.4051 20.6V36H91.7051V8.45H97.4051V11.6C98.3384 10.4667 99.5217 9.58333 100.955 8.95C102.422 8.31667 103.972 8 105.605 8ZM124.876 5.85V16.05H136.876V20.7H124.876V31.35H138.376V36H119.176V1.2H138.376V5.85H124.876ZM146.096 12.45C146.93 11.05 148.03 9.96667 149.396 9.2C150.796 8.4 152.446 8 154.346 8V13.9H152.896C150.663 13.9 148.963 14.4667 147.796 15.6C146.663 16.7333 146.096 18.7 146.096 21.5V36H140.396V8.45H146.096V12.45Z" fill="black"/>
</svg>
